<svg xmlns="http://www.w3.org/2000/svg" xmlns:xlink="http://www.w3.org/1999/xlink" viewBox="0 0 1600 1600"><path d="M 0.702 480.262 C 0.702 459.213 4.848 438.371 12.903 418.924 C 20.957 399.478 32.767 381.809 47.65 366.925 C 62.541 352.041 80.213 340.235 99.663 332.18 C 119.114 324.125 139.959 319.979 161.011 319.979 M 0.702 479.588 C 0.702 500.636 4.848 521.478 12.903 540.925 C 20.957 560.371 32.767 578.041 47.65 592.924 C 62.541 607.808 80.213 619.614 99.663 627.669 C 119.114 635.724 139.959 639.87 161.011 639.87 M 0.702 1118.693 C 0.702 1086.994 10.098 1056.001 27.717 1029.643 C 45.336 1003.285 70.373 982.743 99.663 970.614 C 128.954 958.485 161.188 955.305 192.287 961.488 C 223.386 967.679 251.957 982.942 274.373 1005.354 C 296.797 1027.774 312.063 1056.33 318.248 1087.423 C 324.432 1118.516 321.259 1150.743 309.128 1180.036 C 296.988 1209.321 276.442 1234.353 250.079 1251.968 C 223.716 1269.576 192.724 1278.977 161.011 1278.977 M 0.702 1118.018 L 161.011 1118.018 L 161.011 1278.303 M 321.328 161.046 C 321.328 129.345 311.925 98.356 294.314 71.997 C 276.695 45.639 251.658 25.095 222.367 12.964 C 193.069 0.832 160.835 -2.342 129.736 3.843 C 98.637 10.027 70.074 25.293 47.65 47.709 C 25.234 70.125 9.968 98.685 3.775 129.776 C -2.409 160.868 0.771 193.095 12.903 222.383 C 25.034 251.671 45.581 276.704 71.944 294.316 C 98.307 311.927 129.307 321.328 161.011 321.328 M 320.654 160.371 L 160.337 160.371 L 160.337 320.654 M 319.98 161.046 C 319.98 129.345 329.383 98.356 346.994 71.997 C 364.613 45.639 389.651 25.095 418.949 12.964 C 448.24 0.832 480.473 -2.342 511.572 3.843 C 542.672 10.027 571.234 25.293 593.658 47.709 C 616.075 70.125 631.341 98.685 637.533 129.776 C 643.718 160.868 640.537 193.095 628.405 222.383 C 616.274 251.671 595.727 276.704 569.364 294.316 C 543.001 311.927 512.001 321.328 480.297 321.328 M 319.98 160.371 L 480.297 160.371 L 480.297 320.654 M 160.337 319.979 L 160.337 640.544 M 160.337 639.196 C 181.389 639.196 202.242 643.342 221.693 651.396 C 241.143 659.451 258.816 671.258 273.699 686.142 C 288.589 701.025 300.391 718.694 308.454 738.141 C 316.508 757.587 320.654 778.432 320.654 799.48 M 160.337 639.196 L 160.337 959.757 C 181.389 959.757 202.242 955.612 221.693 947.559 C 241.143 939.506 258.816 927.698 273.699 912.819 C 288.589 897.931 300.391 880.262 308.454 860.816 C 316.508 841.369 320.654 820.528 320.654 799.48 M 319.98 798.806 C 319.98 819.854 324.126 840.695 332.18 860.142 C 340.243 879.588 352.045 897.257 366.935 912.145 C 381.818 927.025 399.498 938.832 418.949 946.885 C 438.392 954.938 459.245 959.091 480.297 959.083 M 319.98 798.806 L 640.614 798.806 M 160.337 1277.628 C 181.389 1277.628 202.242 1281.774 221.693 1289.827 C 241.143 1297.887 258.816 1309.687 273.699 1324.574 C 288.589 1339.454 300.391 1357.131 308.454 1376.577 C 316.508 1396.016 320.654 1416.865 320.654 1437.913 C 320.654 1458.961 316.508 1479.802 308.454 1499.248 C 300.391 1518.695 288.589 1536.364 273.699 1551.251 C 258.816 1566.131 241.143 1577.939 221.693 1585.992 C 202.242 1594.045 181.389 1598.19 160.337 1598.197 Z M 480.297 319.979 C 459.245 319.979 438.392 324.125 418.949 332.18 C 399.498 340.235 381.818 352.041 366.935 366.925 C 352.045 381.809 340.243 399.478 332.18 418.924 C 324.126 438.371 319.98 459.213 319.98 480.262 C 319.98 501.31 324.126 522.153 332.18 541.599 C 340.243 561.046 352.045 578.715 366.935 593.598 C 381.818 608.482 399.498 620.289 418.949 628.344 C 438.392 636.398 459.245 640.544 480.297 640.544 Z M 479.622 959.083 C 500.674 959.083 521.519 954.938 540.97 946.885 C 560.42 938.832 578.093 927.025 592.983 912.145 C 607.866 897.257 619.676 879.588 627.73 860.142 C 635.785 840.695 639.939 819.854 639.939 798.806 M 480.297 958.409 C 459.245 958.409 438.392 962.562 418.949 970.615 C 399.498 978.668 381.818 990.475 366.935 1005.355 C 352.045 1020.243 340.243 1037.912 332.18 1057.358 C 324.126 1076.805 319.98 1097.646 319.98 1118.694 L 480.297 1118.694 M 479.622 958.409 L 479.622 1118.694 M 639.266 799.479 C 639.266 767.774 648.661 736.788 666.28 710.429 C 683.899 684.071 708.936 663.527 738.227 651.395 C 767.518 639.265 799.751 636.09 830.85 642.275 C 861.95 648.459 890.52 663.725 912.936 686.141 C 935.36 708.557 950.626 737.116 956.811 768.21 C 962.996 799.303 959.823 831.53 947.691 860.815 C 935.552 890.1 915.006 915.132 888.642 932.747 C 862.279 950.363 831.287 959.764 799.575 959.756 M 639.266 798.806 L 799.575 798.806 L 799.575 959.083 M 639.939 1118.018 C 639.939 1139.066 635.785 1159.915 627.73 1179.361 C 619.676 1198.8 607.866 1216.477 592.983 1231.357 C 578.093 1246.244 560.42 1258.044 540.97 1266.105 C 521.519 1274.158 500.674 1278.303 479.622 1278.303 L 479.622 1118.018 M 639.939 1118.018 L 479.622 1118.018 M 639.265 1118.694 C 639.257 1097.646 643.411 1076.805 651.466 1057.358 C 659.52 1037.912 671.33 1020.243 686.213 1005.355 C 701.103 990.475 718.776 978.668 738.226 970.615 C 757.677 962.562 778.522 958.409 799.574 958.409 M 639.266 1118.694 C 639.266 1139.742 643.412 1160.59 651.466 1180.037 C 659.521 1199.476 671.331 1217.152 686.213 1232.032 C 701.104 1246.92 718.777 1258.719 738.227 1266.78 C 757.677 1274.833 778.523 1278.978 799.575 1278.978 L 799.575 958.409 M 640.614 1437.912 C 640.614 1406.206 631.211 1375.221 613.592 1348.863 C 595.973 1322.505 570.936 1301.963 541.645 1289.826 C 512.354 1277.697 480.121 1274.525 449.021 1280.708 C 417.922 1286.891 389.359 1302.154 366.936 1324.574 C 344.512 1346.993 329.245 1375.55 323.061 1406.643 C 316.876 1437.736 320.049 1469.963 332.181 1499.248 C 344.32 1528.533 364.866 1553.565 391.229 1571.18 C 417.593 1588.795 448.585 1598.197 480.297 1598.197 L 480.297 1437.912 Z M 639.266 1437.912 C 639.266 1406.206 648.661 1375.221 666.28 1348.863 C 683.899 1322.505 708.936 1301.963 738.227 1289.826 C 767.518 1277.697 799.751 1274.525 830.85 1280.708 C 861.95 1286.891 890.52 1302.154 912.936 1324.574 C 935.36 1346.993 950.626 1375.55 956.811 1406.643 C 962.996 1437.736 959.823 1469.963 947.691 1499.248 C 935.552 1528.533 915.006 1553.565 888.642 1571.18 C 862.279 1588.795 831.287 1598.197 799.575 1598.197 L 799.575 1437.912 Z M 799.892 320.654 C 778.881 320.654 758.077 316.515 738.665 308.475 C 719.253 300.434 701.615 288.648 686.754 273.79 C 671.901 258.934 660.114 241.295 652.076 221.883 C 644.037 202.47 639.892 181.665 639.892 160.654 L 959.892 160.654 M 798.9 320.654 C 819.952 320.654 840.805 316.508 860.248 308.453 C 879.698 300.398 897.378 288.591 912.261 273.708 C 927.152 258.825 938.954 241.155 947.016 221.709 C 955.071 202.262 959.217 181.419 959.217 160.371 M 799.574 319.979 C 778.522 319.979 757.677 324.125 738.226 332.18 C 718.776 340.235 701.103 352.041 686.213 366.925 C 671.33 381.809 659.52 399.478 651.466 418.924 C 643.411 438.371 639.257 459.213 639.265 480.262 L 799.574 480.262 M 798.9 319.979 L 798.9 480.262 M 958.543 161.046 C 958.543 139.997 962.689 119.155 970.744 99.708 C 978.806 80.262 990.608 62.592 1005.499 47.709 C 1020.382 32.825 1038.062 21.019 1057.512 12.964 C 1076.955 4.909 1097.808 0.763 1118.86 0.763 L 1118.86 321.328 M 958.543 160.371 C 958.543 181.419 962.689 202.262 970.744 221.709 C 978.806 241.155 990.608 258.825 1005.499 273.708 C 1020.382 288.591 1038.062 300.398 1057.512 308.453 C 1076.955 316.508 1097.808 320.654 1118.86 320.654 M 798.9 479.588 L 959.217 479.588 C 959.217 500.636 955.071 521.478 947.016 540.925 C 938.954 560.371 927.152 578.041 912.261 592.925 C 897.378 607.808 879.698 619.614 860.248 627.669 C 840.805 635.724 819.952 639.87 798.9 639.87 Z M 1118.185 319.979 C 1139.237 319.979 1160.083 324.125 1179.533 332.18 C 1198.984 340.235 1216.656 352.041 1231.547 366.925 C 1246.43 381.809 1258.239 399.478 1266.294 418.924 C 1274.348 438.371 1278.494 459.213 1278.494 480.262 M 1118.185 319.979 L 1118.185 640.544 C 1139.237 640.544 1160.083 636.398 1179.533 628.344 C 1198.984 620.289 1216.656 608.482 1231.547 593.598 C 1246.43 578.715 1258.239 561.046 1266.294 541.599 C 1274.348 522.153 1278.494 501.31 1278.494 480.262 M 1277.819 480.262 C 1277.819 459.213 1281.973 438.371 1290.027 418.924 C 1298.082 399.478 1309.892 381.809 1324.775 366.925 C 1339.665 352.041 1357.338 340.235 1376.788 332.18 C 1396.239 324.125 1417.084 319.979 1438.136 319.979 M 1277.819 479.588 C 1277.819 500.636 1281.973 521.478 1290.027 540.925 C 1298.082 560.371 1309.892 578.041 1324.775 592.924 C 1339.665 607.808 1357.338 619.614 1376.788 627.669 C 1396.239 635.724 1417.084 639.87 1438.136 639.87 M 1118.86 959.756 C 1087.148 959.764 1056.156 950.363 1029.792 932.747 C 1003.429 915.132 982.883 890.1 970.744 860.815 C 958.612 831.53 955.439 799.303 961.624 768.21 C 967.808 737.116 983.075 708.557 1005.499 686.141 C 1027.915 663.725 1056.485 648.459 1087.584 642.275 C 1118.684 636.09 1150.917 639.265 1180.208 651.395 C 1209.499 663.527 1234.536 684.071 1252.155 710.429 C 1269.774 736.788 1279.169 767.774 1279.169 799.479 L 1118.86 799.479 Z M 1118.185 958.409 C 1139.237 958.409 1160.083 962.562 1179.533 970.615 C 1198.984 978.668 1216.656 990.475 1231.547 1005.355 C 1246.43 1020.243 1258.239 1037.912 1266.294 1057.358 C 1274.348 1076.805 1278.494 1097.646 1278.494 1118.694 M 1118.185 958.409 L 1118.185 1278.978 M 1118.185 1278.303 C 1139.237 1278.303 1160.083 1274.158 1179.533 1266.105 C 1198.984 1258.044 1216.656 1246.244 1231.547 1231.357 C 1246.43 1216.477 1258.239 1198.8 1266.294 1179.361 C 1274.348 1159.915 1278.494 1139.066 1278.494 1118.018 M 1118.86 1277.628 C 1097.808 1277.628 1076.955 1281.774 1057.512 1289.827 C 1038.062 1297.887 1020.382 1309.687 1005.499 1324.574 C 990.608 1339.454 978.806 1357.131 970.744 1376.577 C 962.689 1396.016 958.543 1416.865 958.543 1437.913 L 1118.86 1437.913 M 1118.185 1277.628 L 1118.185 1437.913 M 1277.819 1118.693 C 1277.819 1086.994 1287.222 1056.001 1304.841 1029.643 C 1322.46 1003.285 1347.497 982.743 1376.788 970.614 C 1406.079 958.485 1438.312 955.305 1469.412 961.488 C 1500.511 967.679 1529.081 982.942 1551.498 1005.354 C 1573.922 1027.774 1589.188 1056.33 1595.372 1087.423 C 1601.557 1118.516 1598.384 1150.743 1586.252 1180.036 C 1574.113 1209.321 1553.567 1234.353 1527.204 1251.968 C 1500.84 1269.576 1469.848 1278.977 1438.136 1278.977 M 1277.819 1118.018 L 1438.136 1118.018 L 1438.136 1278.303 M 1118.185 1597.522 C 1139.237 1597.522 1160.083 1593.369 1179.533 1585.316 C 1198.984 1577.263 1216.656 1565.456 1231.547 1550.576 C 1246.43 1535.689 1258.239 1518.02 1266.294 1498.573 C 1274.348 1479.127 1278.494 1458.286 1278.494 1437.238 L 1118.185 1437.238 M 1118.185 1597.522 L 1118.185 1437.238 M 1598.454 161.046 C 1598.454 129.345 1589.051 98.356 1571.439 71.997 C 1553.821 45.639 1528.783 25.095 1499.493 12.964 C 1470.194 0.832 1437.961 -2.342 1406.861 3.843 C 1375.762 10.027 1347.199 25.293 1324.775 47.709 C 1302.359 70.125 1287.093 98.685 1280.901 129.776 C 1274.716 160.868 1277.897 193.095 1290.028 222.383 C 1302.16 251.671 1322.706 276.704 1349.069 294.316 C 1375.433 311.927 1406.432 321.328 1438.137 321.328 M 1597.78 160.371 L 1437.463 160.371 L 1437.463 320.654 M 1437.463 319.979 L 1437.463 640.544 M 1437.463 639.196 C 1458.515 639.196 1479.368 643.342 1498.818 651.396 C 1518.269 659.451 1535.941 671.258 1550.824 686.142 C 1565.715 701.025 1577.517 718.694 1585.579 738.141 C 1593.634 757.587 1597.78 778.432 1597.78 799.48 M 1437.463 639.196 L 1437.463 959.757 C 1458.515 959.757 1479.368 955.612 1498.818 947.559 C 1518.269 939.506 1535.941 927.698 1550.824 912.819 C 1565.715 897.931 1577.517 880.262 1585.579 860.816 C 1593.634 841.369 1597.78 820.528 1597.78 799.48 M 1437.463 1277.628 C 1458.515 1277.628 1479.368 1281.774 1498.818 1289.827 C 1518.269 1297.887 1535.941 1309.687 1550.824 1324.574 C 1565.715 1339.454 1577.517 1357.131 1585.579 1376.577 C 1593.634 1396.016 1597.78 1416.865 1597.78 1437.913 C 1597.78 1458.961 1593.634 1479.802 1585.579 1499.248 C 1577.517 1518.695 1565.715 1536.364 1550.824 1551.251 C 1535.941 1566.131 1518.269 1577.939 1498.818 1585.992 C 1479.368 1594.045 1458.515 1598.19 1437.463 1598.197 Z" fill="none" stroke="rgba(0, 104, 47, 0.8)" stroke-miterlimit="10" stroke-dasharray="2, 3"></path></svg>